<mxfile host="app.diagrams.net" modified="2021-03-11T16:15:57.066Z" agent="5.0 (Macintosh; Intel Mac OS X 11_1_0) AppleWebKit/537.36 (KHTML, like Gecko) Chrome/88.0.4324.192 Safari/537.36" etag="nbDSSsqmjmOr-yiEJxBh" version="14.4.7" type="github">
  <diagram id="dQ7SL4ZZg3dn1iOW7daZ" name="Page-1">
    <mxGraphModel dx="1811" dy="490" grid="1" gridSize="10" guides="1" tooltips="1" connect="1" arrows="1" fold="1" page="1" pageScale="1" pageWidth="827" pageHeight="1169" math="0" shadow="0">
      <root>
        <mxCell id="0" />
        <mxCell id="1" parent="0" />
        <mxCell id="_B06GhfUAiwFSpYhdaKI-18" value="Kalm&amp;nbsp; API" style="rounded=1;whiteSpace=wrap;html=1;fillColor=#dae8fc;strokeColor=#6c8ebf;" vertex="1" parent="1">
          <mxGeometry x="280" y="280" width="120" height="40" as="geometry" />
        </mxCell>
        <mxCell id="_B06GhfUAiwFSpYhdaKI-19" value="" style="endArrow=classic;html=1;" edge="1" parent="1">
          <mxGeometry width="50" height="50" relative="1" as="geometry">
            <mxPoint x="340" y="200" as="sourcePoint" />
            <mxPoint x="339.5" y="280" as="targetPoint" />
          </mxGeometry>
        </mxCell>
        <mxCell id="_B06GhfUAiwFSpYhdaKI-20" value="Webhook, API Calls" style="text;html=1;strokeColor=none;fillColor=none;align=center;verticalAlign=middle;whiteSpace=wrap;rounded=0;" vertex="1" parent="1">
          <mxGeometry x="330" y="230" width="150" height="20" as="geometry" />
        </mxCell>
        <mxCell id="_B06GhfUAiwFSpYhdaKI-22" style="edgeStyle=orthogonalEdgeStyle;rounded=0;orthogonalLoop=1;jettySize=auto;html=1;entryX=0;entryY=0.5;entryDx=0;entryDy=0;" edge="1" parent="1" source="_B06GhfUAiwFSpYhdaKI-21" target="_B06GhfUAiwFSpYhdaKI-18">
          <mxGeometry relative="1" as="geometry" />
        </mxCell>
        <mxCell id="_B06GhfUAiwFSpYhdaKI-21" value="Kalm Dashboard" style="rounded=1;whiteSpace=wrap;html=1;fillColor=#dae8fc;strokeColor=#6c8ebf;" vertex="1" parent="1">
          <mxGeometry x="80" y="280" width="120" height="40" as="geometry" />
        </mxCell>
        <mxCell id="_B06GhfUAiwFSpYhdaKI-23" value="API Calls" style="text;html=1;strokeColor=none;fillColor=none;align=center;verticalAlign=middle;whiteSpace=wrap;rounded=0;" vertex="1" parent="1">
          <mxGeometry x="210" y="280" width="60" height="20" as="geometry" />
        </mxCell>
        <mxCell id="_B06GhfUAiwFSpYhdaKI-24" value="&lt;p style=&quot;line-height: 120%&quot;&gt;&lt;font color=&quot;#666666&quot;&gt;Kubernetes API&lt;/font&gt;&lt;/p&gt;" style="rounded=1;whiteSpace=wrap;html=1;fillColor=#d5e8d4;strokeColor=#82b366;opacity=50;" vertex="1" parent="1">
          <mxGeometry x="80" y="400" width="720" height="40" as="geometry" />
        </mxCell>
        <mxCell id="_B06GhfUAiwFSpYhdaKI-25" value="Kalm Controller" style="rounded=1;whiteSpace=wrap;html=1;fillColor=#dae8fc;strokeColor=#6c8ebf;" vertex="1" parent="1">
          <mxGeometry x="480" y="280" width="120" height="40" as="geometry" />
        </mxCell>
        <mxCell id="_B06GhfUAiwFSpYhdaKI-26" value="Kalm Operator" style="rounded=1;whiteSpace=wrap;html=1;fillColor=#dae8fc;strokeColor=#6c8ebf;" vertex="1" parent="1">
          <mxGeometry x="680" y="280" width="120" height="40" as="geometry" />
        </mxCell>
        <mxCell id="_B06GhfUAiwFSpYhdaKI-27" value="" style="endArrow=classic;html=1;" edge="1" parent="1">
          <mxGeometry width="50" height="50" relative="1" as="geometry">
            <mxPoint x="140" y="200" as="sourcePoint" />
            <mxPoint x="139.5" y="280" as="targetPoint" />
          </mxGeometry>
        </mxCell>
        <mxCell id="_B06GhfUAiwFSpYhdaKI-28" value="&amp;nbsp;User requests" style="text;html=1;strokeColor=none;fillColor=none;align=center;verticalAlign=middle;whiteSpace=wrap;rounded=0;" vertex="1" parent="1">
          <mxGeometry x="110" y="230" width="150" height="20" as="geometry" />
        </mxCell>
        <mxCell id="_B06GhfUAiwFSpYhdaKI-32" value="" style="endArrow=classic;startArrow=classic;html=1;entryX=0.5;entryY=1;entryDx=0;entryDy=0;exitX=0.362;exitY=0;exitDx=0;exitDy=0;exitPerimeter=0;" edge="1" parent="1">
          <mxGeometry width="50" height="50" relative="1" as="geometry">
            <mxPoint x="540.3200000000002" y="400" as="sourcePoint" />
            <mxPoint x="539.6800000000001" y="320" as="targetPoint" />
          </mxGeometry>
        </mxCell>
        <mxCell id="_B06GhfUAiwFSpYhdaKI-33" value="" style="endArrow=classic;startArrow=classic;html=1;entryX=0.5;entryY=1;entryDx=0;entryDy=0;exitX=0.362;exitY=0;exitDx=0;exitDy=0;exitPerimeter=0;" edge="1" parent="1">
          <mxGeometry width="50" height="50" relative="1" as="geometry">
            <mxPoint x="740.3200000000002" y="400" as="sourcePoint" />
            <mxPoint x="739.6800000000001" y="320" as="targetPoint" />
          </mxGeometry>
        </mxCell>
        <mxCell id="_B06GhfUAiwFSpYhdaKI-41" value="" style="endArrow=classic;startArrow=classic;html=1;entryX=0.5;entryY=1;entryDx=0;entryDy=0;exitX=0.362;exitY=0;exitDx=0;exitDy=0;exitPerimeter=0;" edge="1" parent="1">
          <mxGeometry width="50" height="50" relative="1" as="geometry">
            <mxPoint x="340.32000000000016" y="400" as="sourcePoint" />
            <mxPoint x="339.68000000000006" y="320" as="targetPoint" />
          </mxGeometry>
        </mxCell>
        <mxCell id="_B06GhfUAiwFSpYhdaKI-43" value="" style="endArrow=classic;html=1;" edge="1" parent="1">
          <mxGeometry width="50" height="50" relative="1" as="geometry">
            <mxPoint x="539.52" y="280" as="sourcePoint" />
            <mxPoint x="540" y="200" as="targetPoint" />
          </mxGeometry>
        </mxCell>
        <mxCell id="_B06GhfUAiwFSpYhdaKI-46" value="Kubernetes API Calls" style="text;html=1;strokeColor=none;fillColor=none;align=center;verticalAlign=middle;whiteSpace=wrap;rounded=0;" vertex="1" parent="1">
          <mxGeometry x="310" y="350" width="190" height="20" as="geometry" />
        </mxCell>
        <mxCell id="_B06GhfUAiwFSpYhdaKI-49" value="External API Calls" style="text;html=1;strokeColor=none;fillColor=none;align=center;verticalAlign=middle;whiteSpace=wrap;rounded=0;" vertex="1" parent="1">
          <mxGeometry x="540" y="230" width="110" height="20" as="geometry" />
        </mxCell>
        <mxCell id="_B06GhfUAiwFSpYhdaKI-50" value="" style="endArrow=classic;html=1;" edge="1" parent="1">
          <mxGeometry width="50" height="50" relative="1" as="geometry">
            <mxPoint x="-40" y="420" as="sourcePoint" />
            <mxPoint x="80" y="419.76" as="targetPoint" />
          </mxGeometry>
        </mxCell>
        <mxCell id="_B06GhfUAiwFSpYhdaKI-51" value="Calls from kubectl" style="text;html=1;strokeColor=none;fillColor=none;align=center;verticalAlign=middle;whiteSpace=wrap;rounded=0;" vertex="1" parent="1">
          <mxGeometry x="-60" y="400" width="150" height="20" as="geometry" />
        </mxCell>
      </root>
    </mxGraphModel>
  </diagram>
</mxfile>
